<svg xmlns="http://www.w3.org/2000/svg" viewBox="0 0 512 512" width="512" height="512"><g fill="#418ce8"><path d="M164 240.6v30.5l22.2-15.6zM300.4 241.8l35.8-24.1-69.6-48.4.2 48.1zM242 216.3v-47l-68.7 48.1 34.35 23z"/><path d="M374 0H138C61.8 0 0 61.8 0 138v236c0 76.2 61.8 138 138 138h236c76.2 0 138-61.8 138-138V138C512 61.8 450.2 0 374 0zm-3 291.5c0 6.2-3.3 12.1-8.5 15.5l-97.1 64.1c-6.2 4.1-14.35 4.1-20.55 0l-95.325-62.9c-5.2-3.4-8.525-9.3-8.525-15.5v-70.2c0-6.1 3.2-11.8 8.2-15.3l93.6-65.2c6.3-4.4 14.65-4.5 20.95-.3l98.725 65.3c5.2 3.4 8.525 9.3 8.525 15.5v69z"/><path d="M267 293.4v47.5l69.05-46.2-35.775-23.5zM243 293.5l-34.85-23.3-34.525 24.2L243 340.833zM346 271.9v-31.3l-23.6 15.8zM252.1 239.4l-22.5 15.7 25.5 17.1 23.2-15.6z"/></g></svg>